<?xml version="1.0" encoding="UTF-8" standalone="no"?>
<svg
   xmlns:dc="http://purl.org/dc/elements/1.1/"
   xmlns:cc="http://creativecommons.org/ns#"
   xmlns:rdf="http://www.w3.org/1999/02/22-rdf-syntax-ns#"
   xmlns:svg="http://www.w3.org/2000/svg"
   xmlns="http://www.w3.org/2000/svg"
   id="svg8"
   xml:space="preserve"
   viewBox="0 0 1024 768"
   y="0px"
   x="0px"
   version="1.1"><metadata
     id="metadata14"><rdf:RDF><cc:Work
         rdf:about=""><dc:format>image/svg+xml</dc:format><dc:type
           rdf:resource="http://purl.org/dc/dcmitype/StillImage" /></cc:Work></rdf:RDF></metadata><defs
     id="defs12" /><g
     transform="translate(-5.2238,-0.004475)"
     id="logo-group"><path
       stroke-miterlimit="2"
       class="c1"
       d="m 513.56,337.38 h -26.462 c -10.081,0 -11.521,4.3204 -11.701,14.941 h 38.16 v 21.602 h -38.163 v 77.407 h -25.2 v -77.4 h -12.96 v -21.602 h 12.961 c 0.54,-22.33 6.66,-37.45 36.18,-37.45 h 27.182 z"
       style="font-variant-ligatures:normal;fill:#598ac1;stroke-width:0;stroke-miterlimit:2"
       id="path12" /><path
       stroke-miterlimit="2"
       class="c1"
       d="m 512.29,401.82 c 0,-33.483 17.101,-51.304 51.844,-51.304 17.822,0 28.082,4.6805 33.843,13.321 v -11.521 h 25.202 v 99.008 h -25.202 v -11.701 c -5.9406,8.8206 -16.201,13.501 -33.843,13.501 -36.003,2e-5 -51.844,-19.262 -51.844,-51.304 z m 55.445,27.002 c 19.082,0 30.243,-9.3608 30.243,-27.002 0,-16.921 -10.621,-27.002 -30.243,-27.002 -19.082,0 -30.243,9.3608 -30.243,27.002 0,16.922 10.621,27.002 30.243,27.002 z"
       style="font-variant-ligatures:normal;fill:#598ac1;stroke-width:0;stroke-miterlimit:2"
       id="path15" /><path
       stroke-miterlimit="2"
       class="c1"
       d="m 658.26,325.32 v 126.01 h -25.2 V 325.32 Z"
       style="font-variant-ligatures:normal;fill:#598ac1;stroke-width:0;stroke-miterlimit:2"
       id="path18" /><path
       stroke-miterlimit="2"
       class="c1"
       d="m 721.55,374.82 c -19.082,0 -30.243,9.3608 -30.243,27.002 0,16.922 10.621,27.002 30.243,27.002 14.761,0 24.842,-5.5805 28.622,-16.382 h 26.102 c -4.1403,26.642 -23.942,40.684 -54.725,40.684 -36.003,0 -55.445,-19.262 -55.445,-51.304 0,-33.483 20.702,-51.304 55.445,-51.304 31.683,0 50.584,14.941 54.545,40.323 H 749.992 C 746.2118,380.58 736.491,374.82 721.55,374.82 Z"
       style="font-variant-ligatures:normal;fill:#598ac1;stroke-width:0;stroke-miterlimit:2"
       id="path21" /><path
       style="fill:#d2c0b3;stroke-width:0.75"
       d="m 326.21,319.83 c -0.34403,-0.008 -0.69097,-0.008 -0.77145,0.002 -0.0801,0.01 -0.3336,0.0471 -0.56295,0.0834 -0.22935,0.0363 -0.62342,0.13594 -0.8757,0.22184 -0.29065,0.0984 -12.002,5.5611 -31.948,14.901 -17.321,8.1098 -31.592,14.796 -31.714,14.858 -0.1226,0.0617 -0.35779,0.20517 -0.52291,0.31901 -0.16472,0.11342 -0.44828,0.36112 -0.62926,0.5496 -0.18139,0.18891 -0.40657,0.4733 -0.50082,0.63259 -0.0942,0.15888 -0.21934,0.41617 -0.27772,0.57129 -0.058,0.15513 -0.13386,0.44369 -0.16847,0.64135 -0.0342,0.19765 -0.0626,0.46662 -0.0626,0.59839 0,0.13178 0.0288,0.40449 0.0638,0.60591 0.0354,0.20182 0.11342,0.49039 0.17388,0.64134 0.06,0.15138 0.1864,0.40616 0.27982,0.56629 0.10133,0.17306 0.33109,0.4537 0.5667,0.69139 0.21809,0.21976 0.51582,0.47663 0.66177,0.57046 0.14637,0.0938 7.1123,3.5357 15.48,7.6485 8.3678,4.1128 15.214,7.4894 15.215,7.5038 4.2e-4,0.0138 -6.5056,3.0712 -14.458,6.7934 -7.9522,3.7226 -14.528,6.8113 -14.612,6.8634 -0.0838,0.0521 -0.19348,0.15345 -0.24394,0.22434 -0.0509,0.0713 -0.10134,0.19891 -0.11259,0.28398 -0.015,0.11634 0.004,0.18931 0.0771,0.29649 0.0538,0.078 0.16346,0.19348 0.24353,0.25645 0.0805,0.0629 5.9422,2.9636 13.027,6.446 l 12.88,6.3317 -0.28731,0.1326 c -0.15846,0.073 -6.283,2.9394 -13.611,6.3697 -9.9248,4.6462 -13.409,6.2959 -13.661,6.4668 -0.18599,0.12635 -0.48831,0.38573 -0.67137,0.57671 -0.18306,0.19057 -0.40992,0.47663 -0.50415,0.63593 -0.0942,0.15888 -0.21935,0.41616 -0.27773,0.57129 -0.058,0.15512 -0.13386,0.44369 -0.16846,0.64134 -0.0342,0.19766 -0.0625,0.46663 -0.0625,0.5984 0,0.13178 0.0288,0.40449 0.0638,0.6059 0.0354,0.20183 0.11342,0.49039 0.17389,0.64135 0.06,0.15137 0.18639,0.40449 0.27981,0.56295 0.0938,0.15804 0.31692,0.44326 0.49623,0.63342 0.17889,0.19015 0.47913,0.44953 0.6672,0.57671 0.22809,0.15471 10.264,5.1107 30.22,14.924 16.433,8.0812 30.003,14.743 30.156,14.804 0.15303,0.0613 0.47204,0.15763 0.7089,0.21392 0.23685,0.0563 0.63717,0.12427 0.88942,0.15137 0.27231,0.0288 0.6672,0.0375 0.972,0.0217 0.28272,-0.015 0.70389,-0.0638 0.93615,-0.10883 0.23268,-0.045 0.6009,-0.14136 0.81855,-0.21393 0.21768,-0.0725 0.68764,-0.28188 1.0446,-0.46495 0.35696,-0.18348 13.043,-6.7412 28.192,-14.573 15.148,-7.8315 28.262,-14.612 29.14,-15.067 0.879,-0.45494 1.7218,-0.91575 1.8736,-1.0238 0.15179,-0.10842 0.38281,-0.30399 0.51375,-0.43494 0.13051,-0.13051 0.31316,-0.33985 0.40532,-0.46453 0.0922,-0.12468 0.24561,-0.38239 0.34152,-0.57296 0.0959,-0.19057 0.21058,-0.48914 0.25562,-0.66428 0.0446,-0.17514 0.093,-0.47955 0.10676,-0.67637 0.015,-0.206 0.005,-0.50248 -0.0238,-0.69764 -0.0275,-0.1864 -0.093,-0.46621 -0.14595,-0.62133 -0.0526,-0.15555 -0.14803,-0.38573 -0.21142,-0.51208 -0.0634,-0.12635 -0.19515,-0.34194 -0.29315,-0.47955 -0.098,-0.13761 -0.31608,-0.38364 -0.48496,-0.54669 -0.16889,-0.16304 -0.43827,-0.38114 -0.59882,-0.48455 -0.16054,-0.103 -6.011,-3.0833 -13.001,-6.6228 -9.8835,-5.004 -12.698,-6.4456 -12.656,-6.4831 0.0292,-0.0267 3.2622,-1.7055 7.1841,-3.7309 3.9219,-2.0258 9.27,-4.7888 11.884,-6.1408 2.6146,-1.3515 4.8385,-2.5116 4.9414,-2.5774 0.10342,-0.0659 0.2306,-0.18389 0.28314,-0.26187 0.0526,-0.0784 0.10634,-0.20725 0.11927,-0.28648 0.0163,-0.10133 -0.003,-0.1964 -0.0655,-0.31859 -0.0492,-0.0959 -0.16263,-0.22726 -0.25228,-0.29273 -0.0901,-0.065 -6.2542,-3.2013 -13.698,-6.9698 -7.4439,-3.7684 -13.527,-6.8584 -13.519,-6.8668 0.008,-0.009 6.4352,-3.3347 14.282,-7.3913 7.8464,-4.0566 14.393,-7.4606 14.548,-7.5645 0.15554,-0.10383 0.40199,-0.30524 0.54752,-0.44744 0.14553,-0.1422 0.34945,-0.37364 0.45286,-0.51375 0.10341,-0.14052 0.25145,-0.38113 0.32901,-0.53501 0.0776,-0.15387 0.18807,-0.44119 0.2452,-0.63843 0.0571,-0.19682 0.11551,-0.53084 0.1301,-0.74184 0.0158,-0.22935 0.007,-0.51374 -0.0233,-0.70848 -0.0271,-0.17889 -0.0926,-0.45078 -0.1447,-0.60465 -0.0525,-0.15345 -0.1472,-0.38281 -0.21058,-0.50874 -0.0634,-0.12635 -0.19474,-0.34194 -0.29232,-0.47955 -0.0976,-0.13761 -0.32526,-0.39156 -0.50624,-0.5642 -0.18056,-0.17263 -0.46912,-0.40074 -0.64093,-0.50708 -0.18,-0.10649 -12.818,-6.5197 -28.095,-14.252 -15.278,-7.7317 -27.938,-14.122 -28.132,-14.202 -0.1985,-0.0792 -0.50791,-0.18056 -0.68806,-0.22517 -0.18014,-0.0446 -0.44952,-0.10134 -0.59881,-0.12636 -0.14887,-0.025 -0.55252,-0.0525 -0.89655,-0.0609 z m -0.18598,5.9864 c 0.11801,-0.004 4.9294,2.4161 24.248,12.195 13.256,6.71 24.824,12.566 25.706,13.014 0.88319,0.44785 1.618,0.82687 1.6333,0.84195 0.0155,0.015 -1.7017,0.92115 -3.8156,2.0133 -2.1138,1.0921 -14.497,7.496 -27.518,14.23 -13.021,6.7345 -23.72,12.244 -23.775,12.244 -0.0554,0 -5.9243,-2.8636 -13.042,-6.3638 -7.1182,-3.5002 -18.553,-9.123 -25.41,-12.495 -6.8572,-3.372 -13.285,-6.5325 -14.282,-7.0238 -0.9975,-0.49123 -1.9594,-0.96158 -2.1376,-1.045 -0.17806,-0.0834 -0.30941,-0.16429 -0.2919,-0.18014 0.0175,-0.0154 0.53835,-0.26354 1.1576,-0.55127 0.61925,-0.28773 1.9236,-0.897 2.8982,-1.3536 0.97493,-0.45662 2.3823,-1.1159 3.1275,-1.4649 0.74625,-0.3495 12.605,-5.9048 26.355,-12.346 17.501,-8.199 25.041,-11.713 25.146,-11.716 z m 27.27,75.457 c 0.0342,0.0117 5.514,2.7802 12.176,6.1524 6.6628,3.3723 12.126,6.1441 12.142,6.1591 0.015,0.0154 -12.345,6.4268 -27.467,14.248 -15.122,7.8209 -27.549,14.225 -27.615,14.232 -0.0909,0.01 -6.1291,-2.9428 -24.512,-11.984 -13.414,-6.6 -24.925,-12.262 -25.58,-12.585 -0.65343,-0.32109 -1.6201,-0.79478 -2.1475,-1.0534 -0.52751,-0.25854 -1.417,-0.69596 -1.977,-0.97245 l -1.0179,-0.50248 0.22561,-0.10133 c 0.12426,-0.0559 0.95745,-0.44369 1.8519,-0.86235 0.89445,-0.41868 2.0863,-0.97703 2.648,-1.2406 0.56211,-0.26355 1.294,-0.60632 1.6263,-0.76147 0.33276,-0.15513 1.2051,-0.56337 1.939,-0.90698 0.73391,-0.34402 1.8974,-0.88822 2.5854,-1.2101 0.68805,-0.32151 4.3844,-2.0516 8.214,-3.8447 4.4181,-2.0684 6.9939,-3.253 7.0473,-3.2405 0.0463,0.0104 6.0611,2.9602 13.366,6.5544 9.5325,4.6908 13.399,6.574 13.699,6.6716 0.22936,0.0746 0.59548,0.17013 0.81316,0.21225 0.29607,0.0567 0.59088,0.0759 1.1676,0.0755 0.55795,0 0.88111,-0.0208 1.1676,-0.0738 0.21768,-0.0404 0.59632,-0.13845 0.84105,-0.21768 0.2452,-0.0792 0.72392,-0.28647 1.0638,-0.45995 0.33986,-0.17389 0.84315,-0.43409 1.1184,-0.57754 0.27521,-0.14387 3.3998,-1.7594 6.943,-3.59 3.5437,-1.831 9.4073,-4.8631 13.031,-6.7378 3.6237,-1.8752 6.617,-3.3998 6.6512,-3.3886 z"
       id="icon" /></g></svg>